<svg width="19" height="19" viewBox="0 0 19 19" fill="none" xmlns="http://www.w3.org/2000/svg">
<path d="M17.0068 2.5225C16.9581 2.48038 16.8987 2.45239 16.8352 2.44155C16.7717 2.43072 16.7065 2.43746 16.6466 2.46104L2.33105 8.06334C2.18511 8.11999 2.06155 8.22254 1.97897 8.35553C1.89639 8.48852 1.85928 8.64475 1.87323 8.80067C1.88718 8.95659 1.95144 9.10376 2.05631 9.21998C2.16118 9.3362 2.30099 9.41518 2.45466 9.44502L6.39203 10.2178V14.5861C6.392 14.7551 6.4425 14.9202 6.53702 15.0603C6.63155 15.2004 6.7658 15.309 6.92252 15.3723C7.02337 15.4127 7.13102 15.4336 7.23968 15.4337C7.35343 15.4335 7.46595 15.4103 7.57056 15.3656C7.67517 15.321 7.76972 15.2557 7.84858 15.1738L9.82645 13.1253L12.8639 15.789C13.0179 15.9248 13.2159 16.0001 13.4212 16.0009C13.5109 16.0006 13.6 15.9865 13.6854 15.9593C13.8252 15.915 13.951 15.8348 14.0502 15.7267C14.1494 15.6186 14.2184 15.4864 14.2505 15.3433L17.1198 2.86862C17.1342 2.80611 17.1313 2.74085 17.1114 2.67987C17.0914 2.61889 17.0553 2.56449 17.0068 2.5225ZM2.4363 8.74995C2.43216 8.71578 2.43985 8.68122 2.45811 8.65204C2.47636 8.62286 2.50407 8.60082 2.5366 8.5896L14.8735 3.76149L6.60889 9.68449L2.56415 8.89052C2.52987 8.88549 2.49839 8.86874 2.47508 8.84311C2.45176 8.81747 2.43806 8.78455 2.4363 8.74995ZM7.44242 14.781C7.40335 14.8213 7.3532 14.849 7.29833 14.8606C7.24347 14.8723 7.18639 14.8673 7.13435 14.8464C7.08231 14.8255 7.03766 14.7896 7.00611 14.7432C6.97455 14.6968 6.9575 14.6421 6.95713 14.5861V10.6091L9.3998 12.7495L7.44242 14.781ZM13.6995 15.2147C13.6886 15.2627 13.6653 15.307 13.632 15.3432C13.5988 15.3794 13.5566 15.4063 13.5097 15.4212C13.4628 15.4361 13.4128 15.4386 13.3647 15.4282C13.3166 15.4179 13.2721 15.3952 13.2354 15.3624L7.12878 10.0073L16.4318 3.34049L13.6995 15.2147Z" fill="black"/>
</svg>
