<svg width="19" height="19" viewBox="0 0 19 19" fill="none" xmlns="http://www.w3.org/2000/svg">
<path d="M13.6451 10.8162L11.3847 9.68602C11.318 9.65282 11.2436 9.63782 11.1692 9.64253C11.0948 9.64724 11.0229 9.6715 10.9609 9.71286L9.8533 10.451C9.29257 10.164 8.83637 9.70778 8.54932 9.14705L9.2882 8.04016C9.32956 7.97812 9.35382 7.90626 9.35853 7.83185C9.36324 7.75743 9.34824 7.68309 9.31504 7.61633L8.18483 5.35591C8.14969 5.28519 8.09549 5.2257 8.02834 5.18413C7.96119 5.14257 7.88377 5.1206 7.8048 5.12069C7.09289 5.12069 6.41014 5.40349 5.90675 5.90688C5.40336 6.41028 5.12055 7.09303 5.12055 7.80493C5.12242 9.41551 5.76305 10.9596 6.9019 12.0984C8.04076 13.2373 9.58484 13.8779 11.1954 13.8798C11.9073 13.8798 12.5901 13.597 13.0935 13.0936C13.5969 12.5902 13.8797 11.9075 13.8797 11.1956C13.8797 11.1168 13.8578 11.0396 13.8163 10.9726C13.7749 10.9055 13.7156 10.8514 13.6451 10.8162ZM11.1954 13.0321C9.80959 13.0305 8.48101 12.4792 7.50108 11.4993C6.52115 10.5193 5.96989 9.19076 5.96821 7.80493C5.96825 7.36168 6.12859 6.93339 6.41966 6.59909C6.71073 6.26479 7.11288 6.04704 7.55191 5.986L8.44619 7.77456L7.71226 8.8751C7.6737 8.93314 7.65004 8.9998 7.64339 9.06917C7.63674 9.13854 7.64729 9.20847 7.67412 9.27279C8.06384 10.1994 8.80096 10.9365 9.72756 11.3262C9.79188 11.3531 9.86182 11.3636 9.93119 11.357C10.0006 11.3503 10.0672 11.3267 10.1253 11.2881L11.2258 10.5542L13.0144 11.4484C12.9533 11.8875 12.7356 12.2896 12.4013 12.5807C12.067 12.8718 11.6387 13.0321 11.1954 13.0321ZM9.50011 2.29517C8.25108 2.2949 7.02343 2.61934 5.93761 3.23665C4.85179 3.85397 3.9451 4.74294 3.30649 5.81637C2.66787 6.8898 2.31927 8.11081 2.29489 9.3596C2.27051 10.6084 2.57118 11.8421 3.16741 12.9396L2.3466 15.4028C2.28849 15.577 2.28005 15.764 2.32224 15.9428C2.36443 16.1215 2.45557 16.285 2.58546 16.4149C2.71534 16.5448 2.87882 16.6359 3.05759 16.6781C3.23636 16.7203 3.42335 16.7119 3.5976 16.6538L6.06074 15.8329C7.02494 16.3562 8.09589 16.6523 9.19193 16.6988C10.288 16.7453 11.3801 16.541 12.3852 16.1013C13.3902 15.6616 14.2816 14.9982 14.9914 14.1617C15.7011 13.3252 16.2104 12.3376 16.4806 11.2744C16.7507 10.2111 16.7745 9.10025 16.5501 8.02642C16.3257 6.95259 15.859 5.94419 15.1857 5.07809C14.5124 4.21199 13.6502 3.51108 12.6649 3.0288C11.6796 2.54651 10.5971 2.29559 9.50011 2.29517ZM9.50011 15.8577C8.38257 15.8579 7.2847 15.5636 6.31716 15.0044C6.25266 14.9673 6.17964 14.9476 6.10525 14.9471C6.05964 14.9474 6.01436 14.9548 5.97103 14.969L3.32988 15.8492C3.30499 15.8575 3.27827 15.8587 3.25273 15.8527C3.2272 15.8466 3.20384 15.8336 3.18529 15.8151C3.16673 15.7965 3.15371 15.7732 3.14768 15.7476C3.14166 15.7221 3.14286 15.6954 3.15116 15.6705L4.03131 13.0321C4.05036 12.9751 4.05706 12.9147 4.05097 12.8549C4.04488 12.7951 4.02614 12.7373 3.99599 12.6853C3.29474 11.4739 3.01287 10.065 3.19411 8.67707C3.37534 7.28914 4.00956 5.99982 4.99837 5.00914C5.98717 4.01845 7.27529 3.38179 8.66287 3.19792C10.0504 3.01404 11.4599 3.29324 12.6726 3.9922C13.8853 4.69115 14.8335 5.77079 15.3699 7.06361C15.9064 8.35643 16.0012 9.79016 15.6397 11.1424C15.2781 12.4946 14.4804 13.6897 13.3703 14.5422C12.2603 15.3948 10.8998 15.8572 9.50011 15.8577Z" fill="black"/>
</svg>
