<svg width="20" height="20" viewBox="0 0 20 20" fill="none" xmlns="http://www.w3.org/2000/svg">
<path d="M12.9958 3.50391H7.00418C5.07085 3.50391 3.50391 5.07113 3.50391 7.00446V12.9956C3.50391 14.9289 5.07113 16.4961 7.00446 16.4961H12.9956C14.9289 16.4961 16.4961 14.9289 16.4961 12.9956V7.00446C16.4961 5.07113 14.9292 3.50391 12.9958 3.50391Z" fill="white"/>
<path d="M12.9958 3.50391H7.00418C5.07085 3.50391 3.50391 5.07113 3.50391 7.00446V12.9956C3.50391 14.9289 5.07113 16.4961 7.00446 16.4961H12.9956C14.9289 16.4961 16.4961 14.9289 16.4961 12.9956V7.00446C16.4961 5.07113 14.9292 3.50391 12.9958 3.50391Z" stroke="black" stroke-width="0.5" stroke-miterlimit="10"/>
<path d="M10 13.136C11.732 13.136 13.1361 11.7319 13.1361 9.99988C13.1361 8.26785 11.732 6.86377 10 6.86377C8.26798 6.86377 6.86389 8.26785 6.86389 9.99988C6.86389 11.7319 8.26798 13.136 10 13.136Z" stroke="black" stroke-width="0.5" stroke-miterlimit="10"/>
<path d="M13.8081 6.86391C14.1792 6.86391 14.48 6.56307 14.48 6.19196C14.48 5.82086 14.1792 5.52002 13.8081 5.52002C13.4369 5.52002 13.1361 5.82086 13.1361 6.19196C13.1361 6.56307 13.4369 6.86391 13.8081 6.86391Z" fill="black"/>
</svg>
