<svg width="27" height="27" viewBox="0 0 27 27" fill="none" xmlns="http://www.w3.org/2000/svg">
<circle cx="13.7913" cy="13.2087" r="12.9587" stroke="black" stroke-opacity="0.45" stroke-width="0.5"/>
<path d="M16.7704 8.09912H11.6644C10.0169 8.09912 8.68158 9.43467 8.68158 11.0822V16.1877C8.68158 17.8352 10.0171 19.1707 11.6647 19.1707H16.7701C18.4177 19.1707 19.7532 17.8352 19.7532 16.1877V11.0822C19.7532 9.43467 18.4179 8.09912 16.7704 8.09912Z" fill="white"/>
<path d="M16.7704 8.09912H11.6644C10.0169 8.09912 8.68158 9.43467 8.68158 11.0822V16.1877C8.68158 17.8352 10.0171 19.1707 11.6647 19.1707H16.7701C18.4177 19.1707 19.7532 17.8352 19.7532 16.1877V11.0822C19.7532 9.43467 18.4179 8.09912 16.7704 8.09912Z" stroke="black" stroke-width="0.5" stroke-miterlimit="10"/>
<path d="M14.2174 16.3074C15.6934 16.3074 16.8899 15.1109 16.8899 13.6349C16.8899 12.1589 15.6934 10.9624 14.2174 10.9624C12.7414 10.9624 11.5449 12.1589 11.5449 13.6349C11.5449 15.1109 12.7414 16.3074 14.2174 16.3074Z" stroke="black" stroke-width="0.5" stroke-miterlimit="10"/>
<path d="M17.4626 10.9626C17.7788 10.9626 18.0352 10.7062 18.0352 10.39C18.0352 10.0738 17.7788 9.81738 17.4626 9.81738C17.1463 9.81738 16.89 10.0738 16.89 10.39C16.89 10.7062 17.1463 10.9626 17.4626 10.9626Z" fill="black"/>
</svg>
