<svg width="27" height="27" viewBox="0 0 27 27" fill="none" xmlns="http://www.w3.org/2000/svg">
<circle cx="13.2087" cy="13.2087" r="12.9587" stroke="black" stroke-opacity="0.45" stroke-width="0.5"/>
<path d="M19.6058 7.26272C19.5643 7.22682 19.5137 7.20297 19.4596 7.19374C19.4055 7.18451 19.3499 7.19025 19.2988 7.21035L7.09949 11.9845C6.97513 12.0328 6.86983 12.1201 6.79946 12.2335C6.72909 12.3468 6.69747 12.4799 6.70936 12.6128C6.72125 12.7457 6.776 12.8711 6.86537 12.9701C6.95474 13.0692 7.07388 13.1365 7.20484 13.1619L10.5602 13.8205V17.543C10.5601 17.687 10.6032 17.8277 10.6837 17.9471C10.7643 18.0665 10.8787 18.1591 11.0122 18.2129C11.0982 18.2474 11.1899 18.2652 11.2825 18.2653C11.3794 18.2651 11.4753 18.2454 11.5645 18.2073C11.6536 18.1693 11.7342 18.1136 11.8014 18.0438L13.4869 16.2981L16.0753 18.5681C16.2065 18.6838 16.3753 18.748 16.5502 18.7487C16.6267 18.7484 16.7026 18.7364 16.7754 18.7132C16.8945 18.6754 17.0017 18.6071 17.0862 18.515C17.1707 18.4229 17.2296 18.3102 17.2569 18.1883L19.7021 7.55768C19.7143 7.5044 19.7118 7.4488 19.6949 7.39683C19.6779 7.34486 19.6471 7.2985 19.6058 7.26272ZM7.18919 12.5696C7.18565 12.5405 7.19221 12.511 7.20777 12.4862C7.22332 12.4613 7.24694 12.4425 7.27466 12.4329L17.7879 8.31855L10.745 13.366L7.29814 12.6894C7.26892 12.6851 7.2421 12.6708 7.22223 12.649C7.20236 12.6271 7.19068 12.5991 7.18919 12.5696ZM11.4553 17.7091C11.422 17.7434 11.3792 17.767 11.3325 17.7769C11.2857 17.7869 11.2371 17.7826 11.1927 17.7648C11.1484 17.747 11.1103 17.7164 11.0835 17.6769C11.0566 17.6374 11.042 17.5908 11.0417 17.543V14.1539L13.1233 15.9779L11.4553 17.7091ZM16.7874 18.0787C16.7781 18.1196 16.7583 18.1573 16.7299 18.1882C16.7015 18.219 16.6656 18.242 16.6256 18.2547C16.5857 18.2674 16.5431 18.2694 16.5021 18.2606C16.4611 18.2519 16.4231 18.2325 16.3919 18.2045L11.188 13.6411L19.1158 7.95979L16.7874 18.0787Z" fill="black"/>
</svg>
