<svg width="28" height="27" viewBox="0 0 28 27" fill="none" xmlns="http://www.w3.org/2000/svg">
<circle cx="14.0001" cy="13.2087" r="12.9587" stroke="black" stroke-opacity="0.45" stroke-width="0.5"/>
<path d="M17.5324 14.3308L15.6061 13.3676C15.5492 13.3393 15.4859 13.3265 15.4225 13.3306C15.359 13.3346 15.2978 13.3553 15.2449 13.3905L14.3011 14.0195C13.8232 13.7749 13.4345 13.3862 13.1899 12.9083L13.8195 11.9651C13.8548 11.9122 13.8754 11.851 13.8794 11.7875C13.8835 11.7241 13.8707 11.6608 13.8424 11.6039L12.8792 9.67762C12.8493 9.61736 12.8031 9.56666 12.7459 9.53124C12.6887 9.49582 12.6227 9.47709 12.5554 9.47717C11.9487 9.47717 11.3669 9.71817 10.9379 10.1471C10.5089 10.5761 10.2679 11.1579 10.2679 11.7646C10.2695 13.1371 10.8155 14.4529 11.786 15.4234C12.7565 16.3939 14.0723 16.9399 15.4448 16.9415C16.0515 16.9415 16.6333 16.7005 17.0623 16.2715C17.4912 15.8425 17.7322 15.2607 17.7322 14.654C17.7323 14.5869 17.7136 14.5211 17.6783 14.464C17.643 14.4069 17.5924 14.3607 17.5324 14.3308ZM15.4448 16.2191C14.2638 16.2177 13.1316 15.7479 12.2966 14.9128C11.4615 14.0778 10.9917 12.9456 10.9903 11.7646C10.9903 11.3869 11.127 11.0219 11.375 10.737C11.6231 10.4521 11.9658 10.2666 12.3399 10.2146L13.102 11.7387L12.4765 12.6766C12.4437 12.726 12.4235 12.7828 12.4178 12.842C12.4122 12.9011 12.4212 12.9607 12.444 13.0155C12.7761 13.8051 13.4043 14.4333 14.1939 14.7654C14.2487 14.7882 14.3083 14.7972 14.3674 14.7916C14.4266 14.7859 14.4834 14.7657 14.5328 14.7329L15.4707 14.1074L16.9948 14.8695C16.9428 15.2436 16.7573 15.5863 16.4724 15.8344C16.1875 16.0824 15.8225 16.2191 15.4448 16.2191ZM14.0001 7.06934C12.9357 7.06911 11.8895 7.34559 10.9642 7.87165C10.0389 8.3977 9.26626 9.15527 8.72205 10.07C8.17784 10.9848 7.88077 12.0253 7.86 13.0895C7.83922 14.1536 8.09544 15.205 8.60353 16.1402L7.90406 18.2393C7.85454 18.3878 7.84735 18.5471 7.8833 18.6995C7.91926 18.8518 7.99693 18.9911 8.10761 19.1018C8.21829 19.2125 8.35761 19.2901 8.50995 19.3261C8.66229 19.3621 8.82164 19.3549 8.97013 19.3053L11.0692 18.6059C11.8908 19.0518 12.8035 19.3041 13.7375 19.3438C14.6715 19.3834 15.6022 19.2092 16.4587 18.8345C17.3152 18.4598 18.0748 17.8945 18.6796 17.1816C19.2844 16.4688 19.7185 15.6273 19.9486 14.7212C20.1788 13.8151 20.1991 12.8684 20.0079 11.9534C19.8166 11.0383 19.419 10.1789 18.8452 9.44087C18.2714 8.70281 17.5367 8.10551 16.697 7.69452C15.8574 7.28353 14.9349 7.0697 14.0001 7.06934ZM14.0001 18.6269C13.0478 18.6272 12.1122 18.3764 11.2877 17.8998C11.2327 17.8682 11.1705 17.8514 11.1071 17.851C11.0682 17.8512 11.0296 17.8575 10.9927 17.8697L8.74198 18.6197C8.72077 18.6268 8.69801 18.6278 8.67624 18.6227C8.65448 18.6175 8.63458 18.6065 8.61877 18.5906C8.60296 18.5748 8.59186 18.5549 8.58672 18.5332C8.58159 18.5114 8.58261 18.4886 8.58969 18.4674L9.33973 16.2191C9.35596 16.1705 9.36167 16.119 9.35648 16.0681C9.35129 16.0171 9.33532 15.9679 9.30963 15.9235C8.71204 14.8912 8.47184 13.6906 8.62628 12.5078C8.78073 11.3251 9.32119 10.2263 10.1638 9.38211C11.0065 8.53788 12.1042 7.99533 13.2866 7.83864C14.4691 7.68194 15.6702 7.91987 16.7036 8.5155C17.7371 9.11113 18.545 10.0312 19.0022 11.1329C19.4594 12.2346 19.5402 13.4564 19.2321 14.6087C18.924 15.761 18.2442 16.7794 17.2982 17.506C16.3522 18.2325 15.1929 18.6265 14.0001 18.6269Z" fill="black"/>
</svg>
